<svg width="38" height="33" viewBox="0 0 38 33" fill="none" xmlns="http://www.w3.org/2000/svg">
<path d="M32.6917 22.5C32.2377 22.5 31.8622 22.3508 31.5652 22.0525C31.2686 21.7538 31.1202 21.3795 31.1202 20.9295C31.1202 20.4795 31.2689 20.1068 31.5662 19.8115C31.8639 19.5162 32.2372 19.3685 32.6862 19.3685H36.0857C36.5347 19.3685 36.9089 19.5142 37.2082 19.8055C37.5072 20.0968 37.6567 20.4692 37.6567 20.9225C37.6567 21.3422 37.5074 21.71 37.2087 22.026C36.9101 22.342 36.5356 22.5 36.0852 22.5H32.6917ZM32.6917 30.6315C32.2377 30.6315 31.8622 30.4823 31.5652 30.184C31.2686 29.8853 31.1202 29.511 31.1202 29.061C31.1202 28.611 31.2691 28.2383 31.5667 27.943C31.8647 27.6477 32.2384 27.5 32.6877 27.5H36.0892C36.5386 27.5 36.9122 27.6477 37.2102 27.943C37.5079 28.2383 37.6567 28.6127 37.6567 29.066C37.6567 29.4857 37.5074 29.8515 37.2087 30.1635C36.9101 30.4755 36.5356 30.6315 36.0852 30.6315H32.6917ZM23.1667 32.7035C22.1781 32.7035 21.3296 32.3157 20.6212 31.54C19.9132 30.7647 19.5352 29.8192 19.4872 28.7035H16.4167C15.9277 28.7035 15.5216 28.5418 15.1982 28.2185C14.8749 27.8952 14.7132 27.489 14.7132 27V23C14.7132 22.511 14.8749 22.1048 15.1982 21.7815C15.5216 21.4582 15.9277 21.2965 16.4167 21.2965H19.4872C19.5352 20.1808 19.9132 19.2353 20.6212 18.46C21.3296 17.6843 22.1781 17.2965 23.1667 17.2965H27.9167C28.4057 17.2965 28.8119 17.4582 29.1352 17.7815C29.4586 18.1048 29.6202 18.511 29.6202 19V31C29.6202 31.489 29.4586 31.8952 29.1352 32.2185C28.8119 32.5418 28.4057 32.7035 27.9167 32.7035H23.1667ZM8.51022 26.7035C6.22156 26.7035 4.32189 25.958 2.81122 24.467C1.30022 22.976 0.544724 21.0718 0.544724 18.7545C0.544724 16.4292 1.30022 14.5215 2.81122 13.0315C4.32189 11.5415 6.22156 10.7965 8.51022 10.7965H11.7602C12.8052 10.7965 13.6556 10.466 14.3112 9.80501C14.9669 9.14367 15.2947 8.29334 15.2947 7.25401C15.2947 6.20701 14.9669 5.35351 14.3112 4.69351C13.6556 4.03351 12.8052 3.70351 11.7602 3.70351H4.26022C3.80556 3.70351 3.40606 3.53351 3.06172 3.19351C2.71706 2.85351 2.54472 2.45568 2.54472 2.00001C2.54472 1.51101 2.71706 1.10484 3.06172 0.781509C3.40606 0.458176 3.80556 0.296509 4.26022 0.296509H11.7602C13.7492 0.296509 15.4054 0.95751 16.7287 2.27951C18.0517 3.60151 18.7132 5.25968 18.7132 7.25401C18.7132 9.24034 18.0517 10.8952 16.7287 12.2185C15.4054 13.5418 13.7492 14.2035 11.7602 14.2035H8.51022C7.16589 14.2035 6.07206 14.6163 5.22872 15.442C4.38506 16.2677 3.96322 17.3718 3.96322 18.7545C3.96322 20.1292 4.38506 21.2298 5.22872 22.0565C6.07206 22.8832 7.16589 23.2965 8.51022 23.2965H11.5102C11.9992 23.2965 12.4054 23.4582 12.7287 23.7815C13.0517 24.1048 13.2132 24.511 13.2132 25C13.2132 25.489 13.0517 25.8952 12.7287 26.2185C12.4054 26.5418 11.9992 26.7035 11.5102 26.7035H8.51022Z" fill="white"/>
</svg>
