<svg width="42" height="45" viewBox="0 0 42 45" fill="none" xmlns="http://www.w3.org/2000/svg">
<path d="M11.4048 16.485H2.1688C1.69914 16.485 1.3093 16.3291 0.999302 16.0175C0.689302 15.7058 0.534302 15.3168 0.534302 14.8505C0.534302 14.3838 0.689302 13.9956 0.999302 13.6859C1.3093 13.3763 1.69914 13.2215 2.1688 13.2215H11.4048V6.35545L8.6943 9.07845C8.3643 9.40212 7.97897 9.56395 7.5383 9.56395C7.0973 9.56395 6.7078 9.40212 6.3698 9.07845C6.0598 8.75445 5.9068 8.37045 5.9108 7.92645C5.9148 7.48279 6.0788 7.09895 6.4028 6.77495L11.8433 1.33495C12.183 0.994952 12.5826 0.824951 13.0423 0.824951C13.5023 0.824951 13.9021 0.994952 14.2418 1.33495L19.6943 6.78695C20.0103 7.11228 20.1721 7.49445 20.1798 7.93345C20.1878 8.37278 20.035 8.75445 19.7213 9.07845C19.3793 9.40212 18.9863 9.56395 18.5423 9.56395C18.0986 9.56395 17.7148 9.39812 17.3908 9.06645L14.6798 6.35545V28.5035H39.5128C39.9748 28.5035 40.3623 28.6618 40.6753 28.9785C40.988 29.2951 41.1443 29.6875 41.1443 30.1555C41.1443 30.6201 40.988 31.0068 40.6753 31.3155C40.3623 31.6241 39.9748 31.7785 39.5128 31.7785H30.2853V38.6445L32.9963 35.9335C33.3166 35.6018 33.6971 35.4358 34.1378 35.4355C34.5788 35.4351 34.9735 35.6011 35.3218 35.9335C35.6308 36.2575 35.7833 36.6394 35.7793 37.0795C35.7753 37.5191 35.6115 37.901 35.2878 38.225L29.8353 43.677C29.495 44.017 29.097 44.185 28.6413 44.181C28.186 44.177 27.7883 44.009 27.4483 43.677L21.9963 38.213C21.6723 37.897 21.5083 37.5191 21.5043 37.0795C21.5003 36.6394 21.653 36.2575 21.9623 35.9335C22.3083 35.6011 22.7015 35.4371 23.1418 35.4415C23.5818 35.4458 23.9678 35.6098 24.2998 35.9335L26.9983 38.6445V31.7785H14.6798C13.7431 31.7785 12.9631 31.4693 12.3398 30.851C11.7165 30.233 11.4048 29.4505 11.4048 28.5035V16.485ZM26.9983 25.5035V16.485H17.6798V13.2215H26.9983C27.944 13.2215 28.7283 13.5308 29.3513 14.1495C29.974 14.7678 30.2853 15.5463 30.2853 16.485V25.5035H26.9983Z" fill="white"/>
</svg>