<svg width="37" height="38" viewBox="0 0 37 38" fill="none" xmlns="http://www.w3.org/2000/svg">
<path d="M5.16201 37.7035C4.43968 37.7035 3.83351 37.4585 3.34351 36.9685C2.85351 36.4785 2.60851 35.8723 2.60851 35.15C2.60851 34.4276 2.85351 33.8215 3.34351 33.3315C3.83351 32.8415 4.43968 32.5965 5.16201 32.5965H9.16201L4.01751 15.035C2.84718 14.5426 1.92818 13.8396 1.26051 12.926C0.592515 12.0123 0.258514 10.8036 0.258514 9.29996C0.258514 7.66163 0.859514 6.23946 2.06151 5.03346C3.26318 3.82779 4.68318 3.22496 6.32151 3.22496C7.86018 3.22496 9.14068 3.63863 10.163 4.46596C11.1853 5.29296 11.8752 6.4043 12.2325 7.79996H19.09V4.84996C19.09 4.40996 19.252 4.02813 19.576 3.70446C19.9 3.38046 20.2818 3.21846 20.7215 3.21846C21.0805 3.21846 21.385 3.35413 21.635 3.62546C21.885 3.8968 22.0138 4.21179 22.0215 4.57046L25.688 1.05446C25.9787 0.771797 26.3443 0.584795 26.785 0.493462C27.2253 0.402129 27.6742 0.460462 28.1315 0.668462L36.0315 4.46846C36.3715 4.65113 36.6057 4.91229 36.734 5.25196C36.8627 5.59196 36.8318 5.94846 36.6415 6.32146C36.4588 6.6788 36.1912 6.8988 35.8385 6.98146C35.4862 7.06413 35.144 7.01013 34.812 6.81946L27.1575 3.10546L22.365 7.94796V10.4285L27.1575 15.4825L34.812 11.7425C35.185 11.5598 35.5355 11.5121 35.8635 11.5995C36.1915 11.6868 36.4508 11.9091 36.6415 12.2665C36.8318 12.6395 36.8627 13.0126 36.734 13.386C36.6057 13.759 36.3548 14.0368 35.9815 14.2195L28.3675 17.8075C27.8608 18.0648 27.377 18.1831 26.916 18.1625C26.4547 18.1418 26.0453 17.9528 25.688 17.5955L22.0215 14.0795C22.0138 14.5461 21.887 14.8881 21.641 15.1055C21.3947 15.3228 21.0882 15.4315 20.7215 15.4315C20.2818 15.4315 19.9 15.2695 19.576 14.9455C19.252 14.6218 19.09 14.24 19.09 13.8V10.8H12.1325C12.1165 11.24 11.9843 11.7041 11.736 12.1925C11.4873 12.6808 11.201 13.0583 10.877 13.325L20.864 32.5965H26.5215C27.2442 32.5965 27.8503 32.8415 28.34 33.3315C28.83 33.8215 29.075 34.4276 29.075 35.15C29.075 35.8723 28.83 36.4785 28.34 36.9685C27.8503 37.4585 27.2442 37.7035 26.5215 37.7035H5.16201ZM6.32151 12.1C7.12151 12.1 7.78818 11.8333 8.32151 11.3C8.85485 10.7666 9.12151 10.1 9.12151 9.29996C9.12151 8.49996 8.85485 7.8333 8.32151 7.29996C7.78818 6.76663 7.12151 6.49996 6.32151 6.49996C5.52151 6.49996 4.85485 6.76663 4.32151 7.29996C3.78818 7.8333 3.52151 8.49996 3.52151 9.29996C3.52151 10.1 3.78818 10.7666 4.32151 11.3C4.85485 11.8333 5.52151 12.1 6.32151 12.1ZM12.474 32.5965H17.514L8.30351 14.677C8.18751 14.7516 8.01085 14.8243 7.77351 14.895C7.53618 14.9656 7.35085 15.0176 7.21751 15.051L12.474 32.5965Z" fill="white"/>
</svg>
